<svg xmlns="http://www.w3.org/2000/svg" width="128.002" height="127.048" viewBox="0 0 128.002 127.048">
  <g id="Raggruppa_10" data-name="Raggruppa 10" transform="translate(-2331 -1121.954)">
    <g id="noun_open_book_2570884" data-name="noun_open book_2570884" transform="translate(2331.001 1159)">
      <path id="Tracciato_4" data-name="Tracciato 4" d="M126.668,78c-1.493-.534-36.823-12.96-58.217-1.065a9.087,9.087,0,0,1-4.252.949h-.4a9.078,9.078,0,0,1-4.251-.949C38.155,65.043,2.825,77.465,1.332,78A2.024,2.024,0,0,0,.116,80.577a1.994,1.994,0,0,0,2.553,1.229c.349-.124,35.134-12.351,54.953-1.333a12.934,12.934,0,0,0,6.18,1.449h.4a12.946,12.946,0,0,0,6.181-1.449c19.815-11.016,54.6,1.208,54.952,1.333a1.99,1.99,0,0,0,2.553-1.229A2.024,2.024,0,0,0,126.668,78Z" fill="#fff"/>
      <path id="Tracciato_5" data-name="Tracciato 5" d="M126,90a2,2,0,0,0,1.885-1.345,2.024,2.024,0,0,0-1.217-2.577c-1.493-.535-36.823-12.96-58.217-1.065a9.087,9.087,0,0,1-4.252.949h-.4a9.078,9.078,0,0,1-4.251-.949C38.155,73.12,2.825,85.543,1.332,86.077A2.024,2.024,0,0,0,.116,88.655a1.994,1.994,0,0,0,2.553,1.229c.349-.125,35.134-12.351,54.953-1.333A12.935,12.935,0,0,0,63.8,90h.4A12.946,12.946,0,0,0,70.38,88.55c19.815-11.017,54.6,1.208,54.952,1.333A1.982,1.982,0,0,0,126,90Z" fill="#fff"/>
      <path id="Tracciato_6" data-name="Tracciato 6" d="M18.586,59.955c-2.949-.2-5.454-.25-7.273-.242l-9.4,5.805A4.047,4.047,0,0,0,0,68.964V69.3a4.05,4.05,0,0,0,1.742,3.334,3.967,3.967,0,0,0,3.709.43c.172-.067,17.561-6.8,34.344-6.8,9.382,0,16.678,2.079,21.687,6.178a3.97,3.97,0,0,0,5.037,0c5.009-4.1,12.306-6.178,21.686-6.178,16.782,0,34.172,6.737,34.346,6.805a3.968,3.968,0,0,0,3.707-.432A4.05,4.05,0,0,0,128,69.3v-.337a4.047,4.047,0,0,0-1.913-3.445l-9.384-5.8c-1.681-.027-4.254-.013-7.383.174L124,68.964V69.3s-18.018-7.078-35.795-7.079a54.556,54.556,0,0,0-9.708.815c13.657-6.568,32.249-7.2,38.8-7.2,2.184,0,3.486.064,3.5.065q.1.005.2.005a4.044,4.044,0,0,0,1.12-7.916L88.792,38.162a3.963,3.963,0,0,0-2.015-.06c-1.144.265-2.14.472-3.1.673a30.318,30.318,0,0,0-10.967,3.991,46.651,46.651,0,0,0-8.379,6.574,56.084,56.084,0,0,0-9.045-6.58,30.3,30.3,0,0,0-10.957-3.985c-.963-.2-1.958-.408-3.1-.673a3.963,3.963,0,0,0-2.015.06L5.879,47.987A4.044,4.044,0,0,0,7,55.9c.068,0,.136,0,.2-.005.011,0,1.316-.065,3.5-.065,6.553,0,25.147.636,38.8,7.205a54.577,54.577,0,0,0-9.711-.816C22.017,62.221,4,69.3,4,69.3v-.337ZM66,53.407a42.648,42.648,0,0,1,8.745-7.166c4.818-2.88,7.262-2.891,12.926-4.2L121,51.864s-1.367-.07-3.7-.07c-10.055,0-38,1.312-51.3,15.143ZM10.7,51.794c-2.331,0-3.7.07-3.7.07l33.329-9.825c5.664,1.311,8.108,1.323,12.926,4.2A51.164,51.164,0,0,1,62,52.675V66.937C48.7,53.105,20.753,51.794,10.7,51.794Z" fill="#fff"/>
    </g>
    <g id="noun_Galaxy_3128931" transform="translate(2355.826 1112.022)">
      <circle id="Ellisse_2" data-name="Ellisse 2" cx="3.269" cy="3.269" r="3.269" transform="translate(19.434 10.363)" fill="#fff"/>
      <circle id="Ellisse_3" data-name="Ellisse 3" cx="1.75" cy="1.75" r="1.75" transform="translate(47.445 73.541)" fill="#fff"/>
      <circle id="Ellisse_4" data-name="Ellisse 4" cx="1.92" cy="1.92" r="1.92" transform="translate(65.311 39.507)" fill="#fff"/>
      <circle id="Ellisse_5" data-name="Ellisse 5" cx="1.92" cy="1.92" r="1.92" transform="translate(42.181 24.737)" fill="#fff"/>
      <circle id="Ellisse_6" data-name="Ellisse 6" cx="1.92" cy="1.92" r="1.92" transform="translate(8.625 52.2)" fill="#fff"/>
      <circle id="Ellisse_7" data-name="Ellisse 7" cx="2.439" cy="2.439" r="2.439" transform="translate(60.669 17.425)" fill="#fff"/>
      <path id="Tracciato_7" data-name="Tracciato 7" d="M12.321,25.69l.44.8a.38.38,0,0,0,.151.151l.8.44a.381.381,0,0,1,0,.671l-.8.44a.38.38,0,0,0-.151.151l-.44.8a.381.381,0,0,1-.671,0l-.44-.8a.381.381,0,0,0-.152-.151l-.8-.444a.381.381,0,0,1,0-.671l.8-.44a.381.381,0,0,0,.152-.151l.44-.8a.381.381,0,0,1,.668,0Z" transform="translate(-3.361 -6.072)" fill="#fff"/>
      <path id="Tracciato_8" data-name="Tracciato 8" d="M84.575,10.16l.516.944a.449.449,0,0,0,.177.178l.945.519a.448.448,0,0,1,0,.785l-.945.516a.449.449,0,0,0-.177.178l-.516.944a.448.448,0,0,1-.785,0l-.516-.944a.451.451,0,0,0-.178-.178l-.942-.519a.447.447,0,0,1,0-.782l.944-.516a.451.451,0,0,0,.178-.178l.516-.944a.448.448,0,0,1,.783,0Z" transform="translate(-31.408 0)" fill="#fff"/>
      <path id="Tracciato_9" data-name="Tracciato 9" d="M26.608,110.744l.575,1.051a.5.5,0,0,0,.2.2l1.051.575a.5.5,0,0,1,0,.873l-1.051.575a.5.5,0,0,0-.2.2l-.575,1.051a.5.5,0,0,1-.873,0l-.575-1.051a.5.5,0,0,0-.2-.2l-1.051-.575a.5.5,0,0,1,0-.873l1.051-.575a.5.5,0,0,0,.2-.2l.575-1.051a.5.5,0,0,1,.873,0Z" transform="translate(-8.667 -39.242)" fill="#fff"/>
      <path id="Tracciato_10" data-name="Tracciato 10" d="M106.473,104.44l.911,1.666a.787.787,0,0,0,.313.313l1.666.915a.788.788,0,0,1,0,1.384l-1.666.915a.793.793,0,0,0-.313.313l-.911,1.666a.793.793,0,0,1-1.385,0l-.915-1.666a.787.787,0,0,0-.313-.313l-1.666-.915a.789.789,0,0,1,0-1.384l1.666-.915a.783.783,0,0,0,.313-.313l.915-1.666a.793.793,0,0,1,1.385,0Z" transform="translate(-39.159 -36.724)" fill="#fff"/>
      <circle id="Ellisse_8" data-name="Ellisse 8" cx="2.768" cy="2.768" r="2.768" transform="translate(28.262 57.742)" fill="#fff"/>
      <path id="Tracciato_11" data-name="Tracciato 11" d="M119.763,89.118l.517.945a.444.444,0,0,0,.177.177l.944.517a.447.447,0,0,1,0,.785l-.944.516a.445.445,0,0,0-.177.178l-.517.944a.447.447,0,0,1-.785,0l-.516-.944a.451.451,0,0,0-.178-.178l-.944-.516a.447.447,0,0,1,0-.785l.944-.517a.449.449,0,0,0,.178-.177l.516-.945a.448.448,0,0,1,.785,0Z" transform="translate(-45.139 -30.813)" fill="#fff"/>
      <path id="Tracciato_12" data-name="Tracciato 12" d="M61.322,64.907a7.513,7.513,0,0,1-5.821-2.2,4.108,4.108,0,0,1-.186-4.939,5.27,5.27,0,0,1,6.271-2.118c1.087.516,1.983,1.777,1.243,3.767a.915.915,0,1,1-1.714-.638c.42-1.127-.094-1.372-.315-1.477a3.459,3.459,0,0,0-3.908,1.393,2.294,2.294,0,0,0,.012,2.838c1.232,1.47,4.712,2.174,8.4.808,5.853-2.167,8.67-6.878,8.424-10.413-.218-3.133-2.6-5.354-6.707-6.253a.915.915,0,1,1,.392-1.787c4.9,1.073,7.866,3.957,8.14,7.914.342,4.914-3.7,10.067-9.614,12.256a13.443,13.443,0,0,1-4.621.851Z" transform="translate(-20.739 -13.243)" fill="#fff"/>
      <path id="Tracciato_13" data-name="Tracciato 13" d="M54.734,74.56a19.991,19.991,0,0,1-5.294-.687c-4.092-1.123-6.972-3.865-7.7-7.335-.751-3.559.8-7.218,4.262-10.039,4.229-3.449,11.277-5.407,16.009-2.248A4.38,4.38,0,0,1,64,57.855a7.735,7.735,0,0,1-2.836,5.968.915.915,0,1,1-1.138-1.432,5.975,5.975,0,0,0,2.147-4.46,2.588,2.588,0,0,0-1.176-2.16c-3.86-2.574-10.067-.93-13.841,2.144-2.908,2.373-4.229,5.377-3.625,8.242.588,2.787,2.981,5.011,6.4,5.949C57.4,74.16,65.088,70.4,65.167,70.362A.915.915,0,0,1,65.985,72a27.638,27.638,0,0,1-11.25,2.561Z" transform="translate(-15.652 -16.675)" fill="#fff"/>
      <path id="Tracciato_14" data-name="Tracciato 14" d="M87.233,72.669a.915.915,0,0,1-.549-1.646,20.022,20.022,0,0,0,7.458-9.928.915.915,0,1,1,1.74.563,21.785,21.785,0,0,1-8.1,10.827A.91.91,0,0,1,87.233,72.669Z" transform="translate(-33.123 -19.72)" fill="#fff"/>
      <path id="Tracciato_15" data-name="Tracciato 15" d="M34.268,54.208a.915.915,0,0,1-.7-1.508c5.324-6.247,14.895-9.858,20.5-9.31a.915.915,0,1,1-.177,1.82c-5.034-.488-14.044,2.95-18.926,8.677a.915.915,0,0,1-.7.321Z" transform="translate(-12.453 -13.036)" fill="#fff"/>
      <path id="Tracciato_16" data-name="Tracciato 16" d="M36.852,86.5a.914.914,0,0,1-.354-.072,16.311,16.311,0,0,1-9.39-9.39,15.787,15.787,0,0,1,1.269-12.818.915.915,0,1,1,1.612.864,13.972,13.972,0,0,0-1.159,11.341A14.487,14.487,0,0,0,37.2,84.738a.915.915,0,0,1-.355,1.758Z" transform="translate(-9.694 -20.998)" fill="#fff"/>
      <path id="Tracciato_17" data-name="Tracciato 17" d="M56.737,98.074a24.781,24.781,0,0,1-6.541-.835.915.915,0,1,1,.482-1.764c7.815,2.134,18-.2,27.953-6.4a.915.915,0,0,1,.968,1.552C71.778,95.5,63.765,98.074,56.737,98.074Z" transform="translate(-18.756 -30.833)" fill="#fff"/>
      <path id="Tracciato_18" data-name="Tracciato 18" d="M83.914,45.435h-.023A.915.915,0,0,1,83,44.5a12.313,12.313,0,0,0-4.171-9.952c-4.476-3.888-11.978-5.193-21.121-3.672a.915.915,0,1,1-.3-1.8c9.691-1.613,17.725-.157,22.624,4.1a14.092,14.092,0,0,1,4.8,11.377.915.915,0,0,1-.916.891Z" transform="translate(-21.542 -7.219)" fill="#fff"/>
      <path id="Tracciato_19" data-name="Tracciato 19" d="M8.414,52.174a.915.915,0,0,1-.809-1.341c5.394-10.27,18.51-17.846,25.9-19.365a.915.915,0,1,1,.366,1.791C26.84,34.706,14.356,41.913,9.222,51.684A.915.915,0,0,1,8.414,52.174Z" transform="translate(-2.363 -8.395)" fill="#fff"/>
      <path id="Tracciato_20" data-name="Tracciato 20" d="M4.507,88.311a.915.915,0,0,1-.739-.375c-3.757-5.142-2.416-14.977.2-19.765a.915.915,0,0,1,1.605.876c-2.327,4.261-3.612,13.316-.329,17.81a.915.915,0,0,1-.738,1.454Z" transform="translate(0 -22.55)" fill="#fff"/>
      <path id="Tracciato_21" data-name="Tracciato 21" d="M104.493,71.188a.915.915,0,0,1-.545-1.65c5.02-3.715,11.991-13.054,11.768-22.187a.915.915,0,1,1,1.829-.044c.235,9.788-7.174,19.752-12.511,23.7A.91.91,0,0,1,104.493,71.188Z" transform="translate(-39.859 -14.238)" fill="#fff"/>
      <path id="Tracciato_22" data-name="Tracciato 22" d="M123.2,37.355h-.046a.915.915,0,0,1-.868-.959,16.8,16.8,0,0,0-1.856-7.88.915.915,0,0,1,1.6-.89,18.579,18.579,0,0,1,2.085,8.861A.915.915,0,0,1,123.2,37.355Z" transform="translate(-46.393 -6.722)" fill="#fff"/>
    </g>
  </g>
</svg>
